# xmcd
#
# Track frame offsets:
# 150
# 13207
# 23248
# 33968
# 44111
# 57236
# 75335
# 79627
# 89160
# 102424
# 120522
# 134022
# 138822
# 156197
# 166272
# 170972
# 178797
# 193422
# 196722
# 200172
# 219372
# 223759
# 240797
# 253448
# 258473
# 265223
# 271262
# 282588
# 297581
# 317390
# 333440
# 338245
# 348522
# 353492
#
# Disc length: 4772 seconds
#
# Revision: 2
# Processed by: cddbd v1.5.2PL0 Copyright (c) Steve Scherf et al.
# Submitted via: Axialis_AX_CDPlayer 2.6
#
DISCID=1512a222
DTITLE=Miles Davis - Paris Noir
DYEAR=2017
DGENRE=Jazz
TTITLE0=Ascenseur pour l'échafaud - Générique
TTITLE1=Ascenseur pour l'échafaud - L'assasinat de Carala
TTITLE2=Ascenseur pour l'échafaud - Sur l'autoroute
TTITLE3=Ascenseur pour l'échafaud - Julien dans l'ascenseur
TTITLE4=Ascenseur pour l'échafaud - Florence sur les Champs-Élysées
TTITLE5=Ascenseur pour l'échafaud - Dîner au motel
TTITLE6=Ascenseur pour l'échafaud - Évasion de Julien
TTITLE7=Ascenseur pour l'échafaud - Visite du vigile
TTITLE8=Ascenseur pour l'échafaud - Au bar du petit bac
TTITLE9=Ascenseur pour l'échafaud - Chez le photographe du motel
TTITLE10=Un témoin dans la ville - Témoin dand la ville
TTITLE11=Un témoin dans la ville - La pendaison
TTITLE12=Un témoin dans la ville - Mélodie pour les radio-taxis
TTITLE13=Un témoin dans la ville - Poursuite et métro
TTITLE14=Un témoin dans la ville - Ambiance pourpre
TTITLE15=Un témoin dans la ville - Préméditation dans l'appartement
TTITLE16=Un témoin dans la ville - La vie n'est qu'une lutte
TTITLE17=Un témoin dans la ville - Complainte du chaffeur
TTITLE18=Un témoin dans la ville - Sur l'antenne
TTITLE19=Un témoin dans la ville - Blues de l'antenne
TTITLE20=Un témoin dans la ville - S.O.S. radio-taxis
TTITLE21=Un témoin dans la ville - Final au jardin d'acclimatation
TTITLE22=Des femmes disparaissent - Générique
TTITLE23=Des femmes disparaissent - Pierre et Béatrice
TTITLE24=Des femmes disparaissent - Ne chuchote pas
TTITLE25=Des femmes disparaissent - Mambo dans la voiture
TTITLE26=Des femmes disparaissent - Juste pour eux seuls
TTITLE27=Des femmes disparaissent - Blues pour Doudou
TTITLE28=Des femmes disparaissent - Blues pour Marcel
TTITLE29=Des femmes disparaissent - Blues pour Vava
TTITLE30=Des femmes disparaissent - Pasquier
TTITLE31=Des femmes disparaissent - La divorcée de Léo Fall
TTITLE32=Des femmes disparaissent - Des femmes disparaissent
TTITLE33=Des femmes disparaissent - Final pour Pierre et Béatrice
EXTD=Musica Jazz (Magazine)
EXTT0=
EXTT1=
EXTT2=
EXTT3=
EXTT4=
EXTT5=
EXTT6=
EXTT7=
EXTT8=
EXTT9=
EXTT10=
EXTT11=
EXTT12=
EXTT13=
EXTT14=
EXTT15=
EXTT16=
EXTT17=
EXTT18=
EXTT19=
EXTT20=
EXTT21=
EXTT22=
EXTT23=
EXTT24=
EXTT25=
EXTT26=
EXTT27=
EXTT28=
EXTT29=
EXTT30=
EXTT31=
EXTT32=
EXTT33=
PLAYORDER=
